<?xml version="1.0" standalone="no"?>
<!DOCTYPE svg PUBLIC "-//W3C//DTD SVG 20010904//EN"
 "http://www.w3.org/TR/2001/REC-SVG-20010904/DTD/svg10.dtd">
<svg version="1.0" xmlns="http://www.w3.org/2000/svg"
 width="16.000000pt" height="16.000000pt" viewBox="0 0 16.000000 16.000000"
 preserveAspectRatio="xMidYMid meet">
<metadata>
Created by potrace 1.11, written by Peter Selinger 2001-2013
</metadata>
<g transform="translate(0.000000,16.000000) scale(0.003125,-0.003125)"
fill="#000000" stroke="none">
<path d="M2390 3944 c-109 -16 -175 -30 -249 -54 -98 -32 -254 -105 -306 -143
-69 -51 -116 -87 -144 -112 -148 -131 -276 -317 -344 -500 -34 -91 -70 -242
-64 -272 2 -13 1 -23 -3 -23 -8 0 -8 -1 -9 -135 -1 -109 0 -124 14 -220 27
-192 154 -464 280 -601 73 -80 121 -127 157 -155 23 -18 45 -36 48 -39 7 -7
76 -52 136 -87 74 -44 244 -111 328 -129 11 -3 44 -9 71 -15 115 -25 337 -19
505 14 48 9 186 58 250 89 156 74 389 261 446 358 10 16 21 30 25 30 9 0 71
104 117 195 85 171 125 341 126 540 2 221 -35 376 -137 583 -28 56 -58 110
-66 120 -9 9 -29 37 -46 61 -40 59 -165 185 -240 242 -227 173 -497 262 -781
258 -49 -1 -100 -3 -114 -5z"/>
</g>
</svg>
